<?xml version="1.0" encoding="UTF-8"?>
<svg width="220" height="196" version="1.1" viewBox="0 0 220 196" xmlns="http://www.w3.org/2000/svg">
 <g>
  <rect id="normal-center" x="15" y="15" width="30" height="14" fill="#0F0F0F" opacity=".10"/>
  <rect id="normal-top" x="15" y="12" width="30" height="3" fill="#8B6ABD" opacity=".48"/>
  <rect id="normal-right" x="45" y="15" width="3" height="14" fill="#8B6ABD" opacity="0"/>
  <rect id="normal-bottom" x="15" y="29" width="30" height="3" fill="#8B6ABD" opacity="0"/>
  <rect id="normal-left" x="12" y="15" width="3" height="14" fill="#8B6ABD" opacity="0"/>
  <rect id="normal-topleft" x="12" y="12" width="3" height="3" fill="#8B6ABD" opacity=".48"/>
  <rect id="normal-topright" x="45" y="12" width="3" height="3" fill="#8B6ABD" opacity=".48"/>
  <rect id="normal-bottomright" x="45" y="29" width="3" height="3" fill="#8B6ABD" opacity="0"/>
  <rect id="normal-bottomleft" x="12" y="29" width="3" height="3" fill="#8B6ABD" opacity="0"/>
  <rect id="north-normal-center" x="63" y="15" width="30" height="14" fill="#0F0F0F" opacity=".10"/>
  <rect id="north-normal-top" x="63" y="12" width="30" height="3" fill="#8B6ABD" opacity="0"/>
  <rect id="north-normal-right" x="93" y="15" width="3" height="14" fill="#8B6ABD" opacity="0"/>
  <rect id="north-normal-bottom" x="63" y="29" width="30" height="3" fill="#8B6ABD" opacity=".48"/>
  <rect id="north-normal-left" x="60" y="15" width="3" height="14" fill="#8B6ABD" opacity="0"/>
  <rect id="north-normal-topleft" x="60" y="12" width="3" height="3" fill="#8B6ABD" opacity="0"/>
  <rect id="north-normal-topright" x="93" y="12" width="3" height="3" fill="#8B6ABD" opacity="0"/>
  <rect id="north-normal-bottomright" x="93" y="29" width="3" height="3" fill="#8B6ABD" opacity=".48"/>
  <rect id="north-normal-bottomleft" x="60" y="29" width="3" height="3" fill="#8B6ABD" opacity=".48"/>
  <rect id="west-normal-center" x="111" y="15" width="30" height="14" fill="#0F0F0F" opacity=".10"/>
  <rect id="west-normal-top" x="111" y="12" width="30" height="3" fill="#8B6ABD" opacity="0"/>
  <rect id="west-normal-right" x="141" y="15" width="3" height="14" fill="#8B6ABD" opacity=".48"/>
  <rect id="west-normal-bottom" x="111" y="29" width="30" height="3" fill="#8B6ABD" opacity="0"/>
  <rect id="west-normal-left" x="108" y="15" width="3" height="14" fill="#8B6ABD" opacity="0"/>
  <rect id="west-normal-topleft" x="108" y="12" width="3" height="3" fill="#8B6ABD" opacity="0"/>
  <rect id="west-normal-topright" x="141" y="12" width="3" height="3" fill="#8B6ABD" opacity=".48"/>
  <rect id="west-normal-bottomright" x="141" y="29" width="3" height="3" fill="#8B6ABD" opacity=".48"/>
  <rect id="west-normal-bottomleft" x="108" y="29" width="3" height="3" fill="#8B6ABD" opacity="0"/>
  <rect id="east-normal-center" x="159" y="15" width="30" height="14" fill="#0F0F0F" opacity=".10"/>
  <rect id="east-normal-top" x="159" y="12" width="30" height="3" fill="#8B6ABD" opacity="0"/>
  <rect id="east-normal-right" x="189" y="15" width="3" height="14" fill="#8B6ABD" opacity="0"/>
  <rect id="east-normal-bottom" x="159" y="29" width="30" height="3" fill="#8B6ABD" opacity="0"/>
  <rect id="east-normal-left" x="156" y="15" width="3" height="14" fill="#8B6ABD" opacity=".48"/>
  <rect id="east-normal-topleft" x="156" y="12" width="3" height="3" fill="#8B6ABD" opacity=".48"/>
  <rect id="east-normal-topright" x="189" y="12" width="3" height="3" fill="#8B6ABD" opacity="0"/>
  <rect id="east-normal-bottomright" x="189" y="29" width="3" height="3" fill="#8B6ABD" opacity="0"/>
  <rect id="east-normal-bottomleft" x="156" y="29" width="3" height="3" fill="#8B6ABD" opacity=".48"/>
  <rect id="hover-center" x="15" y="43" width="30" height="14" fill="#181820" opacity=".18"/>
  <rect id="hover-top" x="15" y="40" width="30" height="3" fill="#8762B8" opacity=".58"/>
  <rect id="hover-right" x="45" y="43" width="3" height="14" fill="#8762B8" opacity="0"/>
  <rect id="hover-bottom" x="15" y="57" width="30" height="3" fill="#8762B8" opacity="0"/>
  <rect id="hover-left" x="12" y="43" width="3" height="14" fill="#8762B8" opacity="0"/>
  <rect id="hover-topleft" x="12" y="40" width="3" height="3" fill="#8762B8" opacity=".58"/>
  <rect id="hover-topright" x="45" y="40" width="3" height="3" fill="#8762B8" opacity=".58"/>
  <rect id="hover-bottomright" x="45" y="57" width="3" height="3" fill="#8762B8" opacity="0"/>
  <rect id="hover-bottomleft" x="12" y="57" width="3" height="3" fill="#8762B8" opacity="0"/>
  <rect id="north-hover-center" x="63" y="43" width="30" height="14" fill="#181820" opacity=".18"/>
  <rect id="north-hover-top" x="63" y="40" width="30" height="3" fill="#8762B8" opacity="0"/>
  <rect id="north-hover-right" x="93" y="43" width="3" height="14" fill="#8762B8" opacity="0"/>
  <rect id="north-hover-bottom" x="63" y="57" width="30" height="3" fill="#8762B8" opacity=".58"/>
  <rect id="north-hover-left" x="60" y="43" width="3" height="14" fill="#8762B8" opacity="0"/>
  <rect id="north-hover-topleft" x="60" y="40" width="3" height="3" fill="#8762B8" opacity="0"/>
  <rect id="north-hover-topright" x="93" y="40" width="3" height="3" fill="#8762B8" opacity="0"/>
  <rect id="north-hover-bottomright" x="93" y="57" width="3" height="3" fill="#8762B8" opacity=".58"/>
  <rect id="north-hover-bottomleft" x="60" y="57" width="3" height="3" fill="#8762B8" opacity=".58"/>
  <rect id="west-hover-center" x="111" y="43" width="30" height="14" fill="#181820" opacity=".18"/>
  <rect id="west-hover-top" x="111" y="40" width="30" height="3" fill="#8762B8" opacity="0"/>
  <rect id="west-hover-right" x="141" y="43" width="3" height="14" fill="#8762B8" opacity=".58"/>
  <rect id="west-hover-bottom" x="111" y="57" width="30" height="3" fill="#8762B8" opacity="0"/>
  <rect id="west-hover-left" x="108" y="43" width="3" height="14" fill="#8762B8" opacity="0"/>
  <rect id="west-hover-topleft" x="108" y="40" width="3" height="3" fill="#8762B8" opacity="0"/>
  <rect id="west-hover-topright" x="141" y="40" width="3" height="3" fill="#8762B8" opacity=".58"/>
  <rect id="west-hover-bottomright" x="141" y="57" width="3" height="3" fill="#8762B8" opacity=".58"/>
  <rect id="west-hover-bottomleft" x="108" y="57" width="3" height="3" fill="#8762B8" opacity="0"/>
  <rect id="east-hover-center" x="159" y="43" width="30" height="14" fill="#181820" opacity=".18"/>
  <rect id="east-hover-top" x="159" y="40" width="30" height="3" fill="#8762B8" opacity="0"/>
  <rect id="east-hover-right" x="189" y="43" width="3" height="14" fill="#8762B8" opacity="0"/>
  <rect id="east-hover-bottom" x="159" y="57" width="30" height="3" fill="#8762B8" opacity="0"/>
  <rect id="east-hover-left" x="156" y="43" width="3" height="14" fill="#8762B8" opacity=".58"/>
  <rect id="east-hover-topleft" x="156" y="40" width="3" height="3" fill="#8762B8" opacity=".58"/>
  <rect id="east-hover-topright" x="189" y="40" width="3" height="3" fill="#8762B8" opacity="0"/>
  <rect id="east-hover-bottomright" x="189" y="57" width="3" height="3" fill="#8762B8" opacity="0"/>
  <rect id="east-hover-bottomleft" x="156" y="57" width="3" height="3" fill="#8762B8" opacity=".58"/>
  <rect id="focus-center" x="15" y="71" width="30" height="14" fill="#302840" opacity=".24"/>
  <rect id="focus-top" x="15" y="68" width="30" height="3" fill="#8B6ABD" opacity=".95"/>
  <rect id="focus-right" x="45" y="71" width="3" height="14" fill="#8B6ABD" opacity="0"/>
  <rect id="focus-bottom" x="15" y="85" width="30" height="3" fill="#8B6ABD" opacity="0"/>
  <rect id="focus-left" x="12" y="71" width="3" height="14" fill="#8B6ABD" opacity="0"/>
  <rect id="focus-topleft" x="12" y="68" width="3" height="3" fill="#8B6ABD" opacity=".95"/>
  <rect id="focus-topright" x="45" y="68" width="3" height="3" fill="#8B6ABD" opacity=".95"/>
  <rect id="focus-bottomright" x="45" y="85" width="3" height="3" fill="#8B6ABD" opacity="0"/>
  <rect id="focus-bottomleft" x="12" y="85" width="3" height="3" fill="#8B6ABD" opacity="0"/>
  <rect id="north-focus-center" x="63" y="71" width="30" height="14" fill="#302840" opacity=".24"/>
  <rect id="north-focus-top" x="63" y="68" width="30" height="3" fill="#8B6ABD" opacity="0"/>
  <rect id="north-focus-right" x="93" y="71" width="3" height="14" fill="#8B6ABD" opacity="0"/>
  <rect id="north-focus-bottom" x="63" y="85" width="30" height="3" fill="#8B6ABD" opacity=".95"/>
  <rect id="north-focus-left" x="60" y="71" width="3" height="14" fill="#8B6ABD" opacity="0"/>
  <rect id="north-focus-topleft" x="60" y="68" width="3" height="3" fill="#8B6ABD" opacity="0"/>
  <rect id="north-focus-topright" x="93" y="68" width="3" height="3" fill="#8B6ABD" opacity="0"/>
  <rect id="north-focus-bottomright" x="93" y="85" width="3" height="3" fill="#8B6ABD" opacity=".95"/>
  <rect id="north-focus-bottomleft" x="60" y="85" width="3" height="3" fill="#8B6ABD" opacity=".95"/>
  <rect id="west-focus-center" x="111" y="71" width="30" height="14" fill="#302840" opacity=".24"/>
  <rect id="west-focus-top" x="111" y="68" width="30" height="3" fill="#8B6ABD" opacity="0"/>
  <rect id="west-focus-right" x="141" y="71" width="3" height="14" fill="#8B6ABD" opacity=".95"/>
  <rect id="west-focus-bottom" x="111" y="85" width="30" height="3" fill="#8B6ABD" opacity="0"/>
  <rect id="west-focus-left" x="108" y="71" width="3" height="14" fill="#8B6ABD" opacity="0"/>
  <rect id="west-focus-topleft" x="108" y="68" width="3" height="3" fill="#8B6ABD" opacity="0"/>
  <rect id="west-focus-topright" x="141" y="68" width="3" height="3" fill="#8B6ABD" opacity=".95"/>
  <rect id="west-focus-bottomright" x="141" y="85" width="3" height="3" fill="#8B6ABD" opacity=".95"/>
  <rect id="west-focus-bottomleft" x="108" y="85" width="3" height="3" fill="#8B6ABD" opacity="0"/>
  <rect id="east-focus-center" x="159" y="71" width="30" height="14" fill="#302840" opacity=".24"/>
  <rect id="east-focus-top" x="159" y="68" width="30" height="3" fill="#8B6ABD" opacity="0"/>
  <rect id="east-focus-right" x="189" y="71" width="3" height="14" fill="#8B6ABD" opacity="0"/>
  <rect id="east-focus-bottom" x="159" y="85" width="30" height="3" fill="#8B6ABD" opacity="0"/>
  <rect id="east-focus-left" x="156" y="71" width="3" height="14" fill="#8B6ABD" opacity=".95"/>
  <rect id="east-focus-topleft" x="156" y="68" width="3" height="3" fill="#8B6ABD" opacity=".95"/>
  <rect id="east-focus-topright" x="189" y="68" width="3" height="3" fill="#8B6ABD" opacity="0"/>
  <rect id="east-focus-bottomright" x="189" y="85" width="3" height="3" fill="#8B6ABD" opacity="0"/>
  <rect id="east-focus-bottomleft" x="156" y="85" width="3" height="3" fill="#8B6ABD" opacity=".95"/>
  <rect id="minimized-center" x="15" y="99" width="30" height="14" fill="#0F0F0F" opacity=".06"/>
  <rect id="minimized-top" x="15" y="96" width="30" height="3" fill="#585868" opacity=".34"/>
  <rect id="minimized-right" x="45" y="99" width="3" height="14" fill="#585868" opacity="0"/>
  <rect id="minimized-bottom" x="15" y="113" width="30" height="3" fill="#585868" opacity="0"/>
  <rect id="minimized-left" x="12" y="99" width="3" height="14" fill="#585868" opacity="0"/>
  <rect id="minimized-topleft" x="12" y="96" width="3" height="3" fill="#585868" opacity=".34"/>
  <rect id="minimized-topright" x="45" y="96" width="3" height="3" fill="#585868" opacity=".34"/>
  <rect id="minimized-bottomright" x="45" y="113" width="3" height="3" fill="#585868" opacity="0"/>
  <rect id="minimized-bottomleft" x="12" y="113" width="3" height="3" fill="#585868" opacity="0"/>
  <rect id="north-minimized-center" x="63" y="99" width="30" height="14" fill="#0F0F0F" opacity=".06"/>
  <rect id="north-minimized-top" x="63" y="96" width="30" height="3" fill="#585868" opacity="0"/>
  <rect id="north-minimized-right" x="93" y="99" width="3" height="14" fill="#585868" opacity="0"/>
  <rect id="north-minimized-bottom" x="63" y="113" width="30" height="3" fill="#585868" opacity=".34"/>
  <rect id="north-minimized-left" x="60" y="99" width="3" height="14" fill="#585868" opacity="0"/>
  <rect id="north-minimized-topleft" x="60" y="96" width="3" height="3" fill="#585868" opacity="0"/>
  <rect id="north-minimized-topright" x="93" y="96" width="3" height="3" fill="#585868" opacity="0"/>
  <rect id="north-minimized-bottomright" x="93" y="113" width="3" height="3" fill="#585868" opacity=".34"/>
  <rect id="north-minimized-bottomleft" x="60" y="113" width="3" height="3" fill="#585868" opacity=".34"/>
  <rect id="west-minimized-center" x="111" y="99" width="30" height="14" fill="#0F0F0F" opacity=".06"/>
  <rect id="west-minimized-top" x="111" y="96" width="30" height="3" fill="#585868" opacity="0"/>
  <rect id="west-minimized-right" x="141" y="99" width="3" height="14" fill="#585868" opacity=".34"/>
  <rect id="west-minimized-bottom" x="111" y="113" width="30" height="3" fill="#585868" opacity="0"/>
  <rect id="west-minimized-left" x="108" y="99" width="3" height="14" fill="#585868" opacity="0"/>
  <rect id="west-minimized-topleft" x="108" y="96" width="3" height="3" fill="#585868" opacity="0"/>
  <rect id="west-minimized-topright" x="141" y="96" width="3" height="3" fill="#585868" opacity=".34"/>
  <rect id="west-minimized-bottomright" x="141" y="113" width="3" height="3" fill="#585868" opacity=".34"/>
  <rect id="west-minimized-bottomleft" x="108" y="113" width="3" height="3" fill="#585868" opacity="0"/>
  <rect id="east-minimized-center" x="159" y="99" width="30" height="14" fill="#0F0F0F" opacity=".06"/>
  <rect id="east-minimized-top" x="159" y="96" width="30" height="3" fill="#585868" opacity="0"/>
  <rect id="east-minimized-right" x="189" y="99" width="3" height="14" fill="#585868" opacity="0"/>
  <rect id="east-minimized-bottom" x="159" y="113" width="30" height="3" fill="#585868" opacity="0"/>
  <rect id="east-minimized-left" x="156" y="99" width="3" height="14" fill="#585868" opacity=".34"/>
  <rect id="east-minimized-topleft" x="156" y="96" width="3" height="3" fill="#585868" opacity=".34"/>
  <rect id="east-minimized-topright" x="189" y="96" width="3" height="3" fill="#585868" opacity="0"/>
  <rect id="east-minimized-bottomright" x="189" y="113" width="3" height="3" fill="#585868" opacity="0"/>
  <rect id="east-minimized-bottomleft" x="156" y="113" width="3" height="3" fill="#585868" opacity=".34"/>
  <rect id="progress-center" x="15" y="127" width="30" height="14" fill="#489060" opacity=".12"/>
  <rect id="progress-top" x="15" y="124" width="30" height="3" fill="#68B080" opacity=".76"/>
  <rect id="progress-right" x="45" y="127" width="3" height="14" fill="#68B080" opacity="0"/>
  <rect id="progress-bottom" x="15" y="141" width="30" height="3" fill="#68B080" opacity="0"/>
  <rect id="progress-left" x="12" y="127" width="3" height="14" fill="#68B080" opacity="0"/>
  <rect id="progress-topleft" x="12" y="124" width="3" height="3" fill="#68B080" opacity=".76"/>
  <rect id="progress-topright" x="45" y="124" width="3" height="3" fill="#68B080" opacity=".76"/>
  <rect id="progress-bottomright" x="45" y="141" width="3" height="3" fill="#68B080" opacity="0"/>
  <rect id="progress-bottomleft" x="12" y="141" width="3" height="3" fill="#68B080" opacity="0"/>
  <rect id="north-progress-center" x="63" y="127" width="30" height="14" fill="#489060" opacity=".12"/>
  <rect id="north-progress-top" x="63" y="124" width="30" height="3" fill="#68B080" opacity="0"/>
  <rect id="north-progress-right" x="93" y="127" width="3" height="14" fill="#68B080" opacity="0"/>
  <rect id="north-progress-bottom" x="63" y="141" width="30" height="3" fill="#68B080" opacity=".76"/>
  <rect id="north-progress-left" x="60" y="127" width="3" height="14" fill="#68B080" opacity="0"/>
  <rect id="north-progress-topleft" x="60" y="124" width="3" height="3" fill="#68B080" opacity="0"/>
  <rect id="north-progress-topright" x="93" y="124" width="3" height="3" fill="#68B080" opacity="0"/>
  <rect id="north-progress-bottomright" x="93" y="141" width="3" height="3" fill="#68B080" opacity=".76"/>
  <rect id="north-progress-bottomleft" x="60" y="141" width="3" height="3" fill="#68B080" opacity=".76"/>
  <rect id="west-progress-center" x="111" y="127" width="30" height="14" fill="#489060" opacity=".12"/>
  <rect id="west-progress-top" x="111" y="124" width="30" height="3" fill="#68B080" opacity="0"/>
  <rect id="west-progress-right" x="141" y="127" width="3" height="14" fill="#68B080" opacity=".76"/>
  <rect id="west-progress-bottom" x="111" y="141" width="30" height="3" fill="#68B080" opacity="0"/>
  <rect id="west-progress-left" x="108" y="127" width="3" height="14" fill="#68B080" opacity="0"/>
  <rect id="west-progress-topleft" x="108" y="124" width="3" height="3" fill="#68B080" opacity="0"/>
  <rect id="west-progress-topright" x="141" y="124" width="3" height="3" fill="#68B080" opacity=".76"/>
  <rect id="west-progress-bottomright" x="141" y="141" width="3" height="3" fill="#68B080" opacity=".76"/>
  <rect id="west-progress-bottomleft" x="108" y="141" width="3" height="3" fill="#68B080" opacity="0"/>
  <rect id="east-progress-center" x="159" y="127" width="30" height="14" fill="#489060" opacity=".12"/>
  <rect id="east-progress-top" x="159" y="124" width="30" height="3" fill="#68B080" opacity="0"/>
  <rect id="east-progress-right" x="189" y="127" width="3" height="14" fill="#68B080" opacity="0"/>
  <rect id="east-progress-bottom" x="159" y="141" width="30" height="3" fill="#68B080" opacity="0"/>
  <rect id="east-progress-left" x="156" y="127" width="3" height="14" fill="#68B080" opacity=".76"/>
  <rect id="east-progress-topleft" x="156" y="124" width="3" height="3" fill="#68B080" opacity=".76"/>
  <rect id="east-progress-topright" x="189" y="124" width="3" height="3" fill="#68B080" opacity="0"/>
  <rect id="east-progress-bottomright" x="189" y="141" width="3" height="3" fill="#68B080" opacity="0"/>
  <rect id="east-progress-bottomleft" x="156" y="141" width="3" height="3" fill="#68B080" opacity=".76"/>
  <rect id="attention-center" x="15" y="155" width="30" height="14" fill="#C06868" opacity=".14"/>
  <rect id="attention-top" x="15" y="152" width="30" height="3" fill="#D08888" opacity=".86"/>
  <rect id="attention-right" x="45" y="155" width="3" height="14" fill="#D08888" opacity="0"/>
  <rect id="attention-bottom" x="15" y="169" width="30" height="3" fill="#D08888" opacity="0"/>
  <rect id="attention-left" x="12" y="155" width="3" height="14" fill="#D08888" opacity="0"/>
  <rect id="attention-topleft" x="12" y="152" width="3" height="3" fill="#D08888" opacity=".86"/>
  <rect id="attention-topright" x="45" y="152" width="3" height="3" fill="#D08888" opacity=".86"/>
  <rect id="attention-bottomright" x="45" y="169" width="3" height="3" fill="#D08888" opacity="0"/>
  <rect id="attention-bottomleft" x="12" y="169" width="3" height="3" fill="#D08888" opacity="0"/>
  <rect id="north-attention-center" x="63" y="155" width="30" height="14" fill="#C06868" opacity=".14"/>
  <rect id="north-attention-top" x="63" y="152" width="30" height="3" fill="#D08888" opacity="0"/>
  <rect id="north-attention-right" x="93" y="155" width="3" height="14" fill="#D08888" opacity="0"/>
  <rect id="north-attention-bottom" x="63" y="169" width="30" height="3" fill="#D08888" opacity=".86"/>
  <rect id="north-attention-left" x="60" y="155" width="3" height="14" fill="#D08888" opacity="0"/>
  <rect id="north-attention-topleft" x="60" y="152" width="3" height="3" fill="#D08888" opacity="0"/>
  <rect id="north-attention-topright" x="93" y="152" width="3" height="3" fill="#D08888" opacity="0"/>
  <rect id="north-attention-bottomright" x="93" y="169" width="3" height="3" fill="#D08888" opacity=".86"/>
  <rect id="north-attention-bottomleft" x="60" y="169" width="3" height="3" fill="#D08888" opacity=".86"/>
  <rect id="west-attention-center" x="111" y="155" width="30" height="14" fill="#C06868" opacity=".14"/>
  <rect id="west-attention-top" x="111" y="152" width="30" height="3" fill="#D08888" opacity="0"/>
  <rect id="west-attention-right" x="141" y="155" width="3" height="14" fill="#D08888" opacity=".86"/>
  <rect id="west-attention-bottom" x="111" y="169" width="30" height="3" fill="#D08888" opacity="0"/>
  <rect id="west-attention-left" x="108" y="155" width="3" height="14" fill="#D08888" opacity="0"/>
  <rect id="west-attention-topleft" x="108" y="152" width="3" height="3" fill="#D08888" opacity="0"/>
  <rect id="west-attention-topright" x="141" y="152" width="3" height="3" fill="#D08888" opacity=".86"/>
  <rect id="west-attention-bottomright" x="141" y="169" width="3" height="3" fill="#D08888" opacity=".86"/>
  <rect id="west-attention-bottomleft" x="108" y="169" width="3" height="3" fill="#D08888" opacity="0"/>
  <rect id="east-attention-center" x="159" y="155" width="30" height="14" fill="#C06868" opacity=".14"/>
  <rect id="east-attention-top" x="159" y="152" width="30" height="3" fill="#D08888" opacity="0"/>
  <rect id="east-attention-right" x="189" y="155" width="3" height="14" fill="#D08888" opacity="0"/>
  <rect id="east-attention-bottom" x="159" y="169" width="30" height="3" fill="#D08888" opacity="0"/>
  <rect id="east-attention-left" x="156" y="155" width="3" height="14" fill="#D08888" opacity=".86"/>
  <rect id="east-attention-topleft" x="156" y="152" width="3" height="3" fill="#D08888" opacity=".86"/>
  <rect id="east-attention-topright" x="189" y="152" width="3" height="3" fill="#D08888" opacity="0"/>
  <rect id="east-attention-bottomright" x="189" y="169" width="3" height="3" fill="#D08888" opacity="0"/>
  <rect id="east-attention-bottomleft" x="156" y="169" width="3" height="3" fill="#D08888" opacity=".86"/>
 </g>
 <g fill="#8B6ABD">
  <circle id="group-expander-bottom" cx="22" cy="186" r="4" opacity=".70"/>
  <circle id="group-expander-left" cx="38" cy="186" r="4" opacity=".58"/>
  <circle id="group-expander-top" cx="54" cy="186" r="4" opacity=".70"/>
  <circle id="group-expander-right" cx="70" cy="186" r="4" opacity=".58"/>
 </g>
 <g fill="#ff00ff">
  <rect id="hint-stretch-borders" width="5" height="5"/>
 </g>
</svg>
